<svg width="1024" height="1024" viewBox="0 0 1024 1024" fill="none" xmlns="http://www.w3.org/2000/svg">
<path d="M565 682C556.716 682 550 675.284 550 667C550 658.716 556.716 652 565 652H869C877.284 652 884 658.716 884 667C884 675.284 877.284 682 869 682H565Z" fill="#FF5F57" style="fill:#FF5F57;fill:color(display-p3 1.0000 0.3725 0.3412);fill-opacity:1;"/>
<path d="M614 742C605.716 742 599 735.284 599 727C599 718.716 605.716 712 614 712H869C877.284 712 884 718.716 884 727C884 735.284 877.284 742 869 742H614Z" fill="#FF5F57" style="fill:#FF5F57;fill:color(display-p3 1.0000 0.3725 0.3412);fill-opacity:1;"/>
<path d="M668 802C659.716 802 653 795.284 653 787C653 778.716 659.716 772 668 772H869C877.284 772 884 778.716 884 787C884 795.284 877.284 802 869 802H668Z" fill="#FF5F57" style="fill:#FF5F57;fill:color(display-p3 1.0000 0.3725 0.3412);fill-opacity:1;"/>
<path d="M614 862C605.716 862 599 855.284 599 847C599 838.716 605.716 832 614 832H869C877.284 832 884 838.716 884 847C884 855.284 877.284 862 869 862H614Z" fill="#FF5F57" style="fill:#FF5F57;fill:color(display-p3 1.0000 0.3725 0.3412);fill-opacity:1;"/>
<path d="M748 922C739.716 922 733 915.284 733 907C733 898.716 739.716 892 748 892H869C877.284 892 884 898.716 884 907C884 915.284 877.284 922 869 922H748Z" fill="#FF5F57" style="fill:#FF5F57;fill:color(display-p3 1.0000 0.3725 0.3412);fill-opacity:1;"/>
</svg>
