<svg width="1024" height="1024" viewBox="0 0 1024 1024" fill="none" xmlns="http://www.w3.org/2000/svg">
<path d="M641.716 341.678C651.479 331.915 667.308 331.915 677.072 341.678C686.835 351.441 686.835 367.27 677.072 377.033L530.033 524.072C520.27 533.835 504.441 533.835 494.678 524.072C484.915 514.308 484.915 498.479 494.678 488.716L641.716 341.678Z" fill="#FF5F57" style="fill:#FF5F57;fill:color(display-p3 1.0000 0.3725 0.3412);fill-opacity:1;"/>
<path d="M264.374 291.123C257.54 284.289 257.54 273.209 264.374 266.374C271.209 259.54 282.289 259.54 289.123 266.374L516.709 493.961C523.544 500.795 523.544 511.875 516.709 518.709C509.875 525.544 498.795 525.544 491.961 518.709L264.374 291.123Z" fill="#FF5F57" style="fill:#FF5F57;fill:color(display-p3 1.0000 0.3725 0.3412);fill-opacity:1;"/>
</svg>
